<svg width="22" height="22" viewBox="0 0 22 22" fill="none" xmlns="http://www.w3.org/2000/svg">
<path d="M2.16467 6.60694L6.79003 9.69052C7.05688 9.86842 7.1903 9.95737 7.33465 10.0204C7.46278 10.0763 7.59704 10.117 7.73467 10.1415C7.88973 10.1691 8.05008 10.1691 8.37079 10.1691H13.7695C14.0902 10.1691 14.2506 10.1691 14.4056 10.1415C14.5433 10.117 14.6775 10.0763 14.8056 10.0204C14.95 9.95737 15.0834 9.86841 15.3503 9.69052L19.9756 6.60694M6.4393 18.1841H15.701C17.1972 18.1841 17.9454 18.1841 18.5169 17.8929C19.0196 17.6367 19.4283 17.228 19.6844 16.7253C19.9756 16.1538 19.9756 15.4057 19.9756 13.9094V8.20993C19.9756 6.71367 19.9756 5.96554 19.6844 5.39404C19.4283 4.89134 19.0196 4.48263 18.5169 4.22649C17.9454 3.9353 17.1972 3.9353 15.701 3.9353H6.4393C4.94304 3.9353 4.19491 3.9353 3.62341 4.22649C3.12071 4.48263 2.712 4.89134 2.45586 5.39404C2.16467 5.96554 2.16467 6.71367 2.16467 8.20993V13.9094C2.16467 15.4057 2.16467 16.1538 2.45586 16.7253C2.712 17.228 3.12071 17.6367 3.62341 17.8929C4.19491 18.1841 4.94304 18.1841 6.4393 18.1841Z" stroke="#5E5E5E" stroke-width="1.78109" stroke-linecap="round" stroke-linejoin="round"/>
</svg>
