<svg width="269" height="244" viewBox="0 0 269 244" fill="none" xmlns="http://www.w3.org/2000/svg">
<path d="M82.5226 28.2235C82.5226 28.2235 40.6646 52.367 21.3429 86.8578C2.02112 121.349 6.69807 163.772 35.1806 193.8C63.663 223.828 113.599 216.564 157.043 234.037C200.488 251.51 246.602 244.522 263.53 200.843C280.458 157.164 249.375 143.147 240.801 94.3423C232.226 45.5378 181.718 -23.6162 82.5226 28.2235Z" fill="#ACF75F"/>
<path opacity="0.7" d="M82.5226 28.2235C82.5226 28.2235 40.6646 52.367 21.3429 86.8578C2.02112 121.349 6.69807 163.772 35.1806 193.8C63.663 223.828 113.599 216.564 157.043 234.037C200.488 251.51 246.602 244.522 263.53 200.843C280.458 157.164 249.375 143.147 240.801 94.3423C232.226 45.5378 181.718 -23.6162 82.5226 28.2235Z" fill="white"/>
<path d="M117.324 43.1025H75.59V98.75H117.324V43.1025Z" fill="#B5B5B5"/>
<path d="M113.495 48.2004H79.4115V93.6455H113.495V48.2004Z" fill="#ACF75F"/>
<path opacity="0.5" d="M113.495 48.2004H79.4115V93.6455H113.495V48.2004Z" fill="white"/>
<path d="M65.1529 75.5657H29.6757V122.866H65.1529V75.5657Z" fill="#B5B5B5"/>
<path d="M61.9039 79.8975H32.9316V118.527H61.9039V79.8975Z" fill="#ACF75F"/>
<path opacity="0.5" d="M61.9039 79.8975H32.9316V118.527H61.9039V79.8975Z" fill="white"/>
<path d="M175.903 182.956H263.185V43.0198H175.903V182.956ZM221.431 149.307H259.736V145.947H221.444V114.685H259.75V111.291H221.444V80.7113H259.75V77.3174H221.444V46.4137H259.998V179.548H221.444L221.431 149.307ZM179.09 46.4137H218.257V77.3174H179.09V46.4137ZM179.09 80.7113H218.257V111.291H179.09V80.7113ZM179.09 114.685H218.257V145.947H179.09V114.685ZM179.09 149.307H218.257V179.562H179.09V149.307Z" fill="#B5B5B5"/>
<path d="M262.889 39.8122C261.892 28.9307 256.864 18.8147 248.792 11.4491C240.721 4.08345 230.188 0 219.261 0C208.334 0 197.802 4.08345 189.73 11.4491C181.659 18.8147 176.631 28.9307 175.634 39.8122L175.427 42.1024H263.096L262.889 39.8122ZM180.111 37.9083C181.23 30.0869 184.679 22.784 190.01 16.9517L214.622 37.8876L180.111 37.9083ZM216.74 34.1971L193.017 14.02C199.618 8.21726 207.967 4.78234 216.74 4.25913V34.1971ZM220.962 4.21084C229.229 4.5189 237.191 7.41425 243.726 12.4886L220.962 33.8729V4.21084ZM222.817 37.9083L246.899 15.2824C253.149 21.3392 257.217 29.2954 258.467 37.9083H222.817Z" fill="#B5B5B5"/>
<path d="M143.64 86.8364C143.64 86.8364 130.417 87.6159 123.346 87.4849C116.275 87.3538 111.171 85.6568 109.343 88.7955C107.515 91.9342 107.273 90.6304 104.231 96.2593C101.189 101.888 73.1136 127.632 72.5341 131.688C71.6167 138.09 78.2458 142.663 81.9087 143.581C85.5716 144.498 105.466 124.597 105.466 124.597C105.466 124.597 103.445 157.018 102.796 170.359C102.148 183.7 101.748 222.861 101.748 222.861H169.564C169.564 222.861 168.253 191.178 168.384 184.763C168.515 178.347 175.972 146.823 175.972 146.823C175.972 146.823 175.448 159.239 177.152 164.234C178.855 169.228 190.161 180.727 196.708 178.368C203.254 176.009 199.929 166.069 199.143 159.129C198.356 152.19 198.356 132.157 198.356 118.934C198.356 105.71 199.143 103.068 194.562 101.523C189.982 99.9774 181.077 98.1218 174.268 95.5005C167.46 92.8792 156.857 89.8716 155.022 89.2163C153.187 88.561 143.64 86.8364 143.64 86.8364Z" fill="#3D3D3D" stroke="#3D3D3D" stroke-width="0.689815" stroke-linecap="round" stroke-linejoin="round"/>
<path d="M20.7566 222.862H261.13" stroke="#3D3D3D" stroke-width="0.689815" stroke-linecap="round" stroke-linejoin="round"/>
<path d="M147.696 82.7739C147.696 82.7739 143.378 82.5118 139.715 86.7059C136.052 90.8999 127.299 105.296 125.967 107.124C124.636 108.952 127.147 108.042 129.63 107.78C132.113 107.518 139.584 106.469 141.281 107.124C142.978 107.78 150.056 108.566 152.939 111.712C155.822 114.857 162.231 121.921 163.148 120.086C164.066 118.251 166.287 109.877 167.335 104.22C168.384 98.5638 169.17 92.9625 164.852 87.3267C160.534 81.6909 147.696 82.7739 147.696 82.7739Z" fill="#ACF75F" stroke="#3D3D3D" stroke-width="0.689815" stroke-linecap="round" stroke-linejoin="round"/>
<path d="M146.917 76.49C146.532 81.9972 144.965 87.3568 142.323 92.204C137.873 100.578 139.971 116.423 142.192 115.658C144.413 114.892 157.913 105.938 159.748 100.841C161.582 95.7428 161.182 88.141 164.459 80.0288C167.736 71.9166 169.826 67.3086 169.826 67.3086C169.826 67.3086 150.318 76.2279 146.917 76.49Z" fill="#D9D9D9"/>
<mask id="mask0_14_62" style="mask-type:luminance" maskUnits="userSpaceOnUse" x="139" y="67" width="31" height="49">
<path d="M146.917 76.49C146.532 81.9972 144.965 87.3568 142.323 92.204C137.873 100.578 139.971 116.423 142.192 115.658C144.413 114.892 157.913 105.938 159.748 100.841C161.582 95.7428 161.182 88.141 164.459 80.0288C167.736 71.9166 169.826 67.3086 169.826 67.3086C169.826 67.3086 150.318 76.2279 146.917 76.49Z" fill="white"/>
</mask>
<g mask="url(#mask0_14_62)">
<path opacity="0.15" d="M146.917 76.4903C146.743 79.4204 146.194 82.3161 145.282 85.1061C147.213 85.6722 149.224 85.9214 151.235 85.8442C158.326 85.8442 159.058 84.6232 159.058 84.6232C159.058 84.6232 157.588 95.136 155.878 100.268C154.891 103.241 153.491 106.539 152.484 108.794C155.864 106.083 158.933 103.096 159.747 100.841C161.575 95.7361 161.182 88.1413 164.459 80.029C167.735 71.9168 169.826 67.3088 169.826 67.3088C169.826 67.3088 150.318 76.2282 146.917 76.4903Z" fill="black"/>
</g>
<path d="M146.917 76.49C146.532 81.9972 144.965 87.3568 142.323 92.204C137.873 100.578 139.971 116.423 142.192 115.658C144.413 114.892 157.913 105.938 159.748 100.841C161.582 95.7428 161.182 88.141 164.459 80.0288C167.736 71.9166 169.826 67.3086 169.826 67.3086C169.826 67.3086 150.318 76.2279 146.917 76.49Z" stroke="#3D3D3D" stroke-width="0.689815" stroke-linecap="round" stroke-linejoin="round"/>
<path d="M155.429 20.3256C150.58 23.5367 146.654 27.9597 144.04 33.1561C139.853 41.6684 140.115 52.9262 140.115 52.9262C140.115 52.9262 140.509 65.4947 139.853 70.4682C139.198 75.4418 145.372 78.9806 148.228 79.1116C151.083 79.2427 160.01 73.3517 164.204 71.6478C168.398 69.944 169.571 69.6819 173.627 65.6257C177.683 61.5696 184.629 49.2564 185.022 42.3238C185.416 35.3911 184.229 27.2996 178.193 22.4226C172.157 17.5456 164.066 16.0073 155.429 20.3256Z" fill="#D9D9D9"/>
<mask id="mask1_14_62" style="mask-type:luminance" maskUnits="userSpaceOnUse" x="139" y="17" width="47" height="63">
<path d="M155.429 20.3256C150.58 23.5367 146.654 27.9597 144.04 33.1561C139.853 41.6684 140.115 52.9262 140.115 52.9262C140.115 52.9262 140.509 65.4947 139.853 70.4682C139.198 75.4418 145.372 78.9806 148.228 79.1116C151.083 79.2427 160.01 73.3517 164.204 71.6478C168.398 69.944 169.571 69.6819 173.627 65.6257C177.683 61.5696 184.629 49.2564 185.022 42.3238C185.416 35.3911 184.229 27.2996 178.193 22.4226C172.157 17.5456 164.066 16.0073 155.429 20.3256Z" fill="white"/>
</mask>
<g mask="url(#mask1_14_62)">
<path opacity="0.15" d="M145.289 78.2565C146.205 78.721 147.199 79.011 148.221 79.1119C151.104 79.2429 160.003 73.3519 164.197 71.6481C168.391 69.9442 169.564 69.6821 173.62 65.626C177.676 61.5699 184.622 49.2567 185.016 42.324C185.298 38.4046 184.856 34.4667 183.712 30.7075C180.46 31.9185 177.599 33.9906 175.434 36.702C170.543 42.8138 175.434 47.7391 171.295 54.3061C167.156 60.8731 160.527 64.5499 155.636 69.7097C150.745 74.8695 151.918 78.1254 145.289 78.2565Z" fill="black"/>
</g>
<path d="M155.429 20.3256C150.58 23.5367 146.654 27.9597 144.04 33.1561C139.853 41.6684 140.115 52.9262 140.115 52.9262C140.115 52.9262 140.509 65.4947 139.853 70.4682C139.198 75.4418 145.372 78.9806 148.228 79.1116C151.083 79.2427 160.01 73.3517 164.204 71.6478C168.398 69.944 169.571 69.6819 173.627 65.6257C177.683 61.5696 184.629 49.2564 185.022 42.3238C185.416 35.3911 184.229 27.2996 178.193 22.4226C172.157 17.5456 164.066 16.0073 155.429 20.3256Z" stroke="#3D3D3D" stroke-width="0.689815" stroke-linecap="round" stroke-linejoin="round"/>
<path d="M150.318 49.3252C150.318 49.3252 148.483 50.2427 148.483 51.2912C148.483 52.3397 149.794 52.5949 149.794 52.5949" stroke="#3D3D3D" stroke-width="0.689815" stroke-linecap="round" stroke-linejoin="round"/>
<path d="M151.235 49.7185C151.235 49.7185 149.4 51.7879 150.318 53.1193C151.235 54.4506 153.981 53.5125 153.981 53.5125C153.981 53.5125 153.85 54.1678 155.422 54.2989C156.995 54.4299 157.913 52.464 156.995 51.1602L156.078 49.8496" stroke="#3D3D3D" stroke-width="0.689815" stroke-linecap="round" stroke-linejoin="round"/>
<path d="M152.58 42.5927C152.263 43.5377 151.642 44.1862 151.201 44.0344C150.759 43.8826 150.635 42.9928 150.945 42.0477C151.256 41.1027 151.877 40.4543 152.325 40.606C152.773 40.7578 152.891 41.6476 152.58 42.5927Z" fill="#3D3D3D" stroke="#3D3D3D" stroke-width="0.689815" stroke-linecap="round" stroke-linejoin="round"/>
<path d="M152.808 40.944C152.709 40.6998 152.561 40.478 152.374 40.2921C152.188 40.1062 151.965 39.9599 151.72 39.862C151.476 39.7641 151.214 39.7166 150.95 39.7224C150.687 39.7281 150.427 39.787 150.187 39.8955C148.352 40.6819 147.427 45.2691 149.4 46.1797" stroke="#3D3D3D" stroke-width="0.689815" stroke-linecap="round" stroke-linejoin="round"/>
<path d="M163.576 45.7311C163.259 46.683 162.638 47.3245 162.196 47.1797C161.755 47.0348 161.631 46.138 161.941 45.193C162.252 44.2479 162.879 43.5995 163.321 43.7513C163.762 43.903 163.886 44.786 163.576 45.7311Z" fill="#3D3D3D" stroke="#3D3D3D" stroke-width="0.689815" stroke-linecap="round" stroke-linejoin="round"/>
<path d="M163.804 44.0892C163.705 43.8443 163.558 43.6219 163.372 43.4355C163.185 43.249 162.962 43.1024 162.717 43.0044C162.472 42.9064 162.21 42.8591 161.946 42.8653C161.682 42.8715 161.422 42.9312 161.182 43.0407C159.354 43.827 158.423 48.4074 160.396 49.3249" stroke="#3D3D3D" stroke-width="0.689815" stroke-linecap="round" stroke-linejoin="round"/>
<path d="M147.048 61.3073C146.262 60.9141 142.854 58.8171 142.985 57.5064C143.116 56.1958 144.427 54.3678 145.744 55.5405C147.062 56.7131 150.456 59.2103 150.456 59.2103C150.456 59.2103 152.422 61.5694 156.085 59.9001" stroke="#3D3D3D" stroke-width="0.689815" stroke-linecap="round" stroke-linejoin="round"/>
<path d="M147.31 36.6879C147.31 36.6879 149.007 33.4182 151.366 33.1561C153.725 32.8939 154.898 35.5152 154.898 35.9153" stroke="#3D3D3D" stroke-width="2.75926" stroke-linecap="round" stroke-linejoin="round"/>
<path d="M160.396 38.3918C160.396 38.3918 162.755 41.2753 167.984 41.5374" stroke="#3D3D3D" stroke-width="2.75926" stroke-linecap="round" stroke-linejoin="round"/>
<path d="M185.016 42.324C185.402 35.3844 184.229 27.2653 178.207 22.4228C172.185 17.5803 164.066 16.0075 155.443 20.3534C155.443 20.3534 154.808 20.7328 153.815 21.4847C155.13 23.1836 156.777 24.5978 158.655 25.6412C160.534 26.6847 162.604 27.3358 164.742 27.555C172.854 28.4725 175.475 26.8652 177.848 28.6035C180.221 30.3419 180.856 35.0188 179.152 36.5847C177.448 38.1506 173.392 38.0264 173.13 40.3856C172.868 42.7448 176.931 48.3737 176.407 50.2017C175.882 52.0297 174.834 53.2162 175.62 54.0026C176.407 54.7889 178.635 53.7404 179.152 53.4783C179.669 53.2162 179.4 56.3893 177.869 60.0798C181.277 54.6096 184.74 47.1596 185.016 42.324Z" fill="#3D3D3D" stroke="#3D3D3D" stroke-width="0.689815" stroke-linecap="round" stroke-linejoin="round"/>
<path d="M174.013 56.7196C174.013 56.7196 177.289 52.4014 179.642 52.4014C181.994 52.4014 183.18 56.1954 181.87 59.7341C180.559 63.2729 178.207 65.1009 175.323 65.363C172.44 65.6251 172.185 64.1834 172.447 63.2935" fill="#D9D9D9"/>
<path d="M174.013 56.7196C174.013 56.7196 177.289 52.4014 179.642 52.4014C181.994 52.4014 183.18 56.1954 181.87 59.7341C180.559 63.2729 178.207 65.1009 175.323 65.363C172.44 65.6251 172.185 64.1834 172.447 63.2935" stroke="#3D3D3D" stroke-width="0.689815" stroke-linecap="round" stroke-linejoin="round"/>
<path d="M172.447 135.931C172.447 135.931 176.11 145.223 178.731 148.348C181.353 151.473 188.389 156.591 194.307 160.523C200.226 164.455 201.378 173.223 200.46 176.492C199.543 179.762 196.797 182.383 190.644 180.686C184.491 178.989 179.511 171.65 174.406 164.055C169.301 156.46 165.901 150.831 165.507 150.438C165.114 150.045 172.447 135.931 172.447 135.931Z" fill="#D9D9D9"/>
<mask id="mask2_14_62" style="mask-type:luminance" maskUnits="userSpaceOnUse" x="165" y="135" width="36" height="47">
<path d="M172.447 135.931C172.447 135.931 176.11 145.223 178.731 148.348C181.353 151.473 188.389 156.591 194.307 160.523C200.226 164.455 201.378 173.223 200.46 176.492C199.543 179.762 196.797 182.383 190.644 180.686C184.491 178.989 179.511 171.65 174.406 164.055C169.301 156.46 165.901 150.831 165.507 150.438C165.114 150.045 172.447 135.931 172.447 135.931Z" fill="white"/>
</mask>
<g mask="url(#mask2_14_62)">
<path opacity="0.15" d="M200.46 176.513C201.378 173.243 200.198 164.468 194.307 160.543C188.416 156.618 181.346 151.507 178.731 148.368C176.117 145.229 172.447 135.951 172.447 135.951C172.447 135.951 165.087 150.086 165.508 150.458C165.928 150.831 169.302 156.48 174.406 164.075L174.585 164.344L178.131 158.943C178.131 158.943 197.198 173.615 197.687 177.037C197.819 178.144 197.819 179.262 197.687 180.369C199.081 179.496 200.077 178.112 200.46 176.513Z" fill="black"/>
</g>
<path d="M172.447 135.931C172.447 135.931 176.11 145.223 178.731 148.348C181.353 151.473 188.389 156.591 194.307 160.523C200.226 164.455 201.378 173.223 200.46 176.492C199.543 179.762 196.797 182.383 190.644 180.686C184.491 178.989 179.511 171.65 174.406 164.055C169.301 156.46 165.901 150.831 165.507 150.438C165.114 150.045 172.447 135.931 172.447 135.931Z" stroke="#3D3D3D" stroke-width="0.689815" stroke-linecap="round" stroke-linejoin="round"/>
<path d="M176.372 237.004C176.372 237.004 179.787 238.252 186.85 235.507C196.915 231.602 212.967 218.379 212.967 218.379C205.212 219.781 197.268 219.781 189.513 218.379C176.538 216.047 169.557 212.557 169.557 212.557L155.912 232.03L176.372 237.004Z" fill="white"/>
<mask id="mask3_14_62" style="mask-type:luminance" maskUnits="userSpaceOnUse" x="155" y="212" width="58" height="26">
<path d="M176.372 237.004C176.372 237.004 179.787 238.252 186.85 235.507C196.915 231.602 212.967 218.379 212.967 218.379C205.212 219.781 197.268 219.781 189.513 218.379C176.538 216.047 169.557 212.557 169.557 212.557L155.912 232.03L176.372 237.004Z" fill="white"/>
</mask>
<g mask="url(#mask3_14_62)">
<path d="M176.372 237.004C176.372 237.004 179.787 238.252 186.85 235.507C196.915 231.602 212.967 218.379 212.967 218.379C205.212 219.781 197.268 219.781 189.513 218.379C176.538 216.047 169.557 212.557 169.557 212.557L155.912 232.03L176.372 237.004Z" fill="#ACF75F"/>
<path opacity="0.5" d="M176.372 237.004C176.372 237.004 179.787 238.252 186.85 235.507C196.915 231.602 212.967 218.379 212.967 218.379C205.212 219.781 197.268 219.781 189.513 218.379C176.538 216.047 169.557 212.557 169.557 212.557L155.912 232.03L176.372 237.004Z" fill="white"/>
</g>
<path d="M176.372 237.004C176.372 237.004 179.787 238.252 186.85 235.507C196.915 231.602 212.967 218.379 212.967 218.379C205.212 219.781 197.268 219.781 189.513 218.379C176.538 216.047 169.557 212.557 169.557 212.557L155.912 232.03L176.372 237.004Z" stroke="#3D3D3D" stroke-width="0.689815" stroke-linecap="round" stroke-linejoin="round"/>
<path d="M157.926 230.022L184.195 234.43" stroke="#3D3D3D" stroke-width="0.689815" stroke-linecap="round" stroke-linejoin="round"/>
<path d="M187.837 232.133L161.762 227.339" stroke="#3D3D3D" stroke-width="0.689815" stroke-linecap="round" stroke-linejoin="round"/>
<path d="M190.52 229.829L168.087 225.801" stroke="#3D3D3D" stroke-width="0.689815" stroke-linecap="round" stroke-linejoin="round"/>
<path d="M194.356 226.952L173.075 222.931" stroke="#3D3D3D" stroke-width="0.689815" stroke-linecap="round" stroke-linejoin="round"/>
<path d="M195.701 224.462L175.565 221.013" stroke="#3D3D3D" stroke-width="0.689815" stroke-linecap="round" stroke-linejoin="round"/>
<path d="M187.685 202.423C187.685 202.423 193.134 201.547 190.141 209.7C187.147 217.854 177.372 225.042 176.206 230.864C175.041 236.686 176.372 237.017 176.372 237.017L159.409 233.361C159.409 233.361 160.741 220.717 170.053 211.073C179.366 201.429 187.685 202.423 187.685 202.423Z" fill="white"/>
<mask id="mask4_14_62" style="mask-type:luminance" maskUnits="userSpaceOnUse" x="159" y="202" width="33" height="36">
<path d="M187.685 202.423C187.685 202.423 193.134 201.547 190.141 209.7C187.147 217.854 177.372 225.042 176.206 230.864C175.041 236.686 176.372 237.017 176.372 237.017L159.409 233.361C159.409 233.361 160.741 220.717 170.053 211.073C179.366 201.429 187.685 202.423 187.685 202.423Z" fill="white"/>
</mask>
<g mask="url(#mask4_14_62)">
<path opacity="0.15" d="M187.685 202.423C187.685 202.423 193.134 201.547 190.141 209.7C187.147 217.854 177.372 225.042 176.206 230.864C175.041 236.686 176.372 237.017 176.372 237.017L159.409 233.361C159.409 233.361 160.741 220.717 170.053 211.073C179.366 201.429 187.685 202.423 187.685 202.423Z" fill="black"/>
</g>
<path d="M187.685 202.423C187.685 202.423 193.134 201.547 190.141 209.7C187.147 217.854 177.372 225.042 176.206 230.864C175.041 236.686 176.372 237.017 176.372 237.017L159.409 233.361C159.409 233.361 160.741 220.717 170.053 211.073C179.366 201.429 187.685 202.423 187.685 202.423Z" stroke="#3D3D3D" stroke-width="0.689815" stroke-linecap="round" stroke-linejoin="round"/>
<path d="M154.581 242.522C154.581 242.522 157.409 241.832 160.237 237.693C163.065 233.554 169.384 220.393 174.544 213.405C179.704 206.417 187.685 202.43 187.685 202.43L147.262 197.939C147.262 197.939 130.796 216.399 125.139 222.89C119.483 229.381 118.821 235.362 122.815 236.859C126.809 238.356 139.446 239.852 142.771 240.356C146.096 240.86 151.753 243.005 154.581 242.522Z" fill="white"/>
<mask id="mask5_14_62" style="mask-type:luminance" maskUnits="userSpaceOnUse" x="120" y="197" width="68" height="46">
<path d="M154.581 242.522C154.581 242.522 157.409 241.832 160.237 237.693C163.065 233.554 169.384 220.393 174.544 213.405C179.704 206.417 187.685 202.43 187.685 202.43L147.262 197.939C147.262 197.939 130.796 216.399 125.139 222.89C119.483 229.381 118.821 235.362 122.815 236.859C126.809 238.356 139.446 239.852 142.771 240.356C146.096 240.86 151.753 243.005 154.581 242.522Z" fill="white"/>
</mask>
<g mask="url(#mask5_14_62)">
<path d="M154.581 242.522C154.581 242.522 157.409 241.832 160.237 237.693C163.065 233.554 169.384 220.393 174.544 213.405C179.704 206.417 187.685 202.43 187.685 202.43L147.262 197.939C147.262 197.939 130.796 216.399 125.139 222.89C119.483 229.381 118.821 235.362 122.815 236.859C126.809 238.356 139.446 239.852 142.771 240.356C146.096 240.86 151.753 243.005 154.581 242.522Z" fill="#ACF75F"/>
<path opacity="0.5" d="M154.581 242.522C154.581 242.522 157.409 241.832 160.237 237.693C163.065 233.554 169.384 220.393 174.544 213.405C179.704 206.417 187.685 202.43 187.685 202.43L147.262 197.939C147.262 197.939 130.796 216.399 125.139 222.89C119.483 229.381 118.821 235.362 122.815 236.859C126.809 238.356 139.446 239.852 142.771 240.356C146.096 240.86 151.753 243.005 154.581 242.522Z" fill="white"/>
</g>
<path d="M154.581 242.522C154.581 242.522 157.409 241.832 160.237 237.693C163.065 233.554 169.384 220.393 174.544 213.405C179.704 206.417 187.685 202.43 187.685 202.43L147.262 197.939C147.262 197.939 130.796 216.399 125.139 222.89C119.483 229.381 118.821 235.362 122.815 236.859C126.809 238.356 139.446 239.852 142.771 240.356C146.096 240.86 151.753 243.005 154.581 242.522Z" stroke="#3D3D3D" stroke-width="0.689815" stroke-linecap="round" stroke-linejoin="round"/>
<path d="M157.085 236.797L120.745 229.071" stroke="#3D3D3D" stroke-width="0.689815" stroke-linecap="round" stroke-linejoin="round"/>
<path d="M159.375 232.223L123.029 224.49" stroke="#3D3D3D" stroke-width="0.689815" stroke-linecap="round" stroke-linejoin="round"/>
<path d="M162.238 227.07L125.892 219.344" stroke="#3D3D3D" stroke-width="0.689815" stroke-linecap="round" stroke-linejoin="round"/>
<path d="M165.39 220.772L129.044 213.046" stroke="#3D3D3D" stroke-width="0.689815" stroke-linecap="round" stroke-linejoin="round"/>
<path d="M168.819 214.474L132.479 206.748" stroke="#3D3D3D" stroke-width="0.689815" stroke-linecap="round" stroke-linejoin="round"/>
<path d="M171.681 209.328L135.335 201.602" stroke="#3D3D3D" stroke-width="0.689815" stroke-linecap="round" stroke-linejoin="round"/>
<path d="M175.979 205.32L139.633 197.594" stroke="#3D3D3D" stroke-width="0.689815" stroke-linecap="round" stroke-linejoin="round"/>
<path d="M166.728 195.614C166.728 195.614 170.053 195.614 168.225 200.94C166.397 206.265 155.581 220.254 152.091 229.712C148.6 239.169 154.581 242.522 154.581 242.522C154.581 242.522 153.249 244.515 133.79 240.363C114.33 236.21 101.858 235.699 100.679 232.374C99.499 229.05 107.163 220.068 109.991 212.915C112.819 205.761 119.973 188.964 119.973 188.964C119.973 188.964 148.255 194.483 154.236 194.952C160.217 195.421 166.728 195.614 166.728 195.614Z" fill="white"/>
<mask id="mask6_14_62" style="mask-type:luminance" maskUnits="userSpaceOnUse" x="100" y="188" width="69" height="55">
<path d="M166.728 195.614C166.728 195.614 170.053 195.614 168.225 200.94C166.397 206.265 155.581 220.254 152.091 229.712C148.6 239.169 154.581 242.522 154.581 242.522C154.581 242.522 153.249 244.515 133.79 240.363C114.33 236.21 101.858 235.699 100.679 232.374C99.499 229.05 107.163 220.068 109.991 212.915C112.819 205.761 119.973 188.964 119.973 188.964C119.973 188.964 148.255 194.483 154.236 194.952C160.217 195.421 166.728 195.614 166.728 195.614Z" fill="white"/>
</mask>
<g mask="url(#mask6_14_62)">
<path opacity="0.15" d="M166.728 195.615C166.728 195.615 160.237 195.449 154.25 194.925C148.262 194.401 119.987 188.937 119.987 188.937C119.987 188.937 112.833 205.734 110.005 212.888C108.876 215.518 107.54 218.056 106.011 220.476L151.539 231.451C151.69 230.885 151.877 230.299 152.104 229.685C155.595 220.207 166.404 206.231 168.239 200.912C170.074 195.594 166.728 195.615 166.728 195.615Z" fill="black"/>
</g>
<path d="M166.728 195.614C166.728 195.614 170.053 195.614 168.225 200.94C166.397 206.265 155.581 220.254 152.091 229.712C148.6 239.169 154.581 242.522 154.581 242.522C154.581 242.522 153.249 244.515 133.79 240.363C114.33 236.21 101.858 235.699 100.679 232.374C99.499 229.05 107.163 220.068 109.991 212.915C112.819 205.761 119.973 188.964 119.973 188.964C119.973 188.964 148.255 194.483 154.236 194.952C160.217 195.421 166.728 195.614 166.728 195.614Z" stroke="#3D3D3D" stroke-width="0.689815" stroke-linecap="round" stroke-linejoin="round"/>
<path d="M145.599 216.722C145.599 216.722 145.599 218.053 150.594 212.066C155.588 206.078 166.728 195.614 166.728 195.614L115.33 184.473C115.33 184.473 100.692 199.594 98.8644 201.919C97.0364 204.243 95.6981 204.912 100.527 207.078C105.356 209.244 129.499 211.907 134.624 213.232C139.75 214.556 145.599 216.722 145.599 216.722Z" fill="white"/>
<mask id="mask7_14_62" style="mask-type:luminance" maskUnits="userSpaceOnUse" x="97" y="184" width="70" height="33">
<path d="M145.599 216.722C145.599 216.722 145.599 218.053 150.594 212.066C155.588 206.078 166.728 195.614 166.728 195.614L115.33 184.473C115.33 184.473 100.692 199.594 98.8644 201.919C97.0364 204.243 95.6981 204.912 100.527 207.078C105.356 209.244 129.499 211.907 134.624 213.232C139.75 214.556 145.599 216.722 145.599 216.722Z" fill="white"/>
</mask>
<g mask="url(#mask7_14_62)">
<path d="M145.599 216.722C145.599 216.722 145.599 218.053 150.594 212.066C155.588 206.078 166.728 195.614 166.728 195.614L115.33 184.473C115.33 184.473 100.692 199.594 98.8644 201.919C97.0364 204.243 95.6981 204.912 100.527 207.078C105.356 209.244 129.499 211.907 134.624 213.232C139.75 214.556 145.599 216.722 145.599 216.722Z" fill="#ACF75F"/>
<path opacity="0.5" d="M145.599 216.722C145.599 216.722 145.599 218.053 150.594 212.066C155.588 206.078 166.728 195.614 166.728 195.614L115.33 184.473C115.33 184.473 100.692 199.594 98.8644 201.919C97.0364 204.243 95.6981 204.912 100.527 207.078C105.356 209.244 129.499 211.907 134.624 213.232C139.75 214.556 145.599 216.722 145.599 216.722Z" fill="white"/>
</g>
<path d="M145.599 216.722C145.599 216.722 145.599 218.053 150.594 212.066C155.588 206.078 166.728 195.614 166.728 195.614L115.33 184.473C115.33 184.473 100.692 199.594 98.8644 201.919C97.0364 204.243 95.6981 204.912 100.527 207.078C105.356 209.244 129.499 211.907 134.624 213.232C139.75 214.556 145.599 216.722 145.599 216.722Z" stroke="#3D3D3D" stroke-width="0.689815" stroke-linecap="round" stroke-linejoin="round"/>
<path d="M149.49 211.425C149.49 211.425 118.448 207.783 109.798 206.051" stroke="#3D3D3D" stroke-width="0.689815" stroke-linecap="round" stroke-linejoin="round"/>
<path d="M152.173 206.438C152.173 206.438 133.762 204.52 126.091 202.989" stroke="#3D3D3D" stroke-width="0.689815" stroke-linecap="round" stroke-linejoin="round"/>
<path d="M156.202 201.257C156.202 201.257 133.576 197.235 127.823 195.697" stroke="#3D3D3D" stroke-width="0.689815" stroke-linecap="round" stroke-linejoin="round"/>
<path d="M159.844 197.236L132.803 190.903" stroke="#3D3D3D" stroke-width="0.689815" stroke-linecap="round" stroke-linejoin="round"/>
<path d="M165.376 131.461C165.376 131.461 164.231 135.207 162.569 147.686C160.906 160.164 158.43 174.464 155.084 185.108C151.739 195.752 145.268 211.224 144.772 213.218C144.636 213.824 144.64 214.454 144.783 215.059C144.927 215.663 145.206 216.228 145.599 216.708C145.599 216.708 139.115 215.715 120.814 213.715C102.514 211.714 84.5576 202.74 85.0543 201.574C85.5509 200.408 97.533 188.599 104.369 173.292C111.205 157.984 121.835 119.562 121.835 119.562C121.835 119.562 143.461 129.709 149.945 130.378C156.429 131.047 165.376 131.461 165.376 131.461Z" fill="white"/>
<mask id="mask8_14_62" style="mask-type:luminance" maskUnits="userSpaceOnUse" x="85" y="119" width="81" height="98">
<path d="M165.376 131.461C165.376 131.461 164.231 135.207 162.569 147.686C160.906 160.164 158.43 174.464 155.084 185.108C151.739 195.752 145.268 211.224 144.772 213.218C144.636 213.824 144.64 214.454 144.783 215.059C144.927 215.663 145.206 216.228 145.599 216.708C145.599 216.708 139.115 215.715 120.814 213.715C102.514 211.714 84.5576 202.74 85.0543 201.574C85.5509 200.408 97.533 188.599 104.369 173.292C111.205 157.984 121.835 119.562 121.835 119.562C121.835 119.562 143.461 129.709 149.945 130.378C156.429 131.047 165.376 131.461 165.376 131.461Z" fill="white"/>
</mask>
<g mask="url(#mask8_14_62)">
<path opacity="0.15" d="M162.569 147.7C164.231 135.221 165.376 131.475 165.376 131.475C165.376 131.475 156.409 131.061 149.924 130.399C143.44 129.737 121.814 119.583 121.814 119.583C121.814 119.583 114.192 147.1 107.715 164.835L156.809 179.128C159.326 168.77 161.249 158.277 162.569 147.7Z" fill="black"/>
</g>
<path d="M165.376 131.461C165.376 131.461 164.231 135.207 162.569 147.686C160.906 160.164 158.43 174.464 155.084 185.108C151.739 195.752 145.268 211.224 144.772 213.218C144.636 213.824 144.64 214.454 144.783 215.059C144.927 215.663 145.206 216.228 145.599 216.708C145.599 216.708 139.115 215.715 120.814 213.715C102.514 211.714 84.5576 202.74 85.0543 201.574C85.5509 200.408 97.533 188.599 104.369 173.292C111.205 157.984 121.835 119.562 121.835 119.562C121.835 119.562 143.461 129.709 149.945 130.378C156.429 131.047 165.376 131.461 165.376 131.461Z" stroke="#3D3D3D" stroke-width="0.689815" stroke-linecap="round" stroke-linejoin="round"/>
<path d="M169.695 124.018C169.695 124.018 172.964 124.798 173.882 129.909C174.799 135.021 174.668 147.713 174.275 149.286C173.882 150.859 163.017 152.294 158.306 152.845C153.594 153.397 156.078 151.666 158.175 144.202C160.272 136.738 162.493 131.24 163.541 129.675C164.59 128.109 166.811 122.445 169.695 124.018Z" fill="#D9D9D9" stroke="#3D3D3D" stroke-width="0.689815" stroke-linecap="round" stroke-linejoin="round"/>
<path opacity="0.15" d="M166.149 129.854C166.149 129.854 167.011 148.12 167.37 150.141C167.729 152.162 155.388 153.08 155.388 153.08L162.976 131.806" fill="black"/>
<path d="M166.418 156.984C166.418 156.984 161.969 160.13 160.396 160.916C158.823 161.703 150.449 158.295 150.187 157.116C149.925 155.936 151.628 156.198 153.981 156.426C156.333 156.653 160.396 157.343 162.1 156.688C163.804 156.033 166.811 155.439 166.418 156.984Z" fill="#D9D9D9" stroke="#3D3D3D" stroke-width="0.689815" stroke-linecap="round" stroke-linejoin="round"/>
<path d="M172.185 151.507C172.185 151.507 170.743 155.439 168.908 156.612C167.073 157.784 159.616 158.971 156.34 158.681C153.063 158.391 150.318 156.322 151.104 155.149C151.891 153.976 150.973 154.625 155.422 153.97C159.872 153.314 165.376 152.921 167.729 152.135C169.167 151.67 170.674 151.458 172.185 151.507Z" fill="#D9D9D9" stroke="#3D3D3D" stroke-width="0.689815" stroke-linecap="round" stroke-linejoin="round"/>
<path d="M172.571 143.782C172.571 143.782 167.598 146.403 163.542 148.238C162.212 148.812 160.854 149.317 159.472 149.749C157.824 149.951 156.165 150.057 154.505 150.066C151.628 150.066 149.925 149.811 149.925 150.983C149.925 152.777 153.063 153.743 154.395 154.108C159.023 155.433 164.48 153.812 169.143 153.046C170.154 152.903 171.136 152.603 172.054 152.156C174.475 150.977 174.93 148.1 174.537 146.396L174.378 146.189" fill="#D9D9D9"/>
<path d="M172.571 143.782C172.571 143.782 167.598 146.403 163.542 148.238C162.212 148.812 160.854 149.317 159.472 149.749C157.824 149.951 156.165 150.057 154.505 150.066C151.628 150.066 149.925 149.811 149.925 150.983C149.925 152.777 153.063 153.743 154.395 154.108C159.023 155.433 164.48 153.812 169.143 153.046C170.154 152.903 171.136 152.603 172.054 152.156C174.475 150.977 174.93 148.1 174.537 146.396L174.378 146.189" stroke="#3D3D3D" stroke-width="0.689815" stroke-linecap="round" stroke-linejoin="round"/>
<path d="M165.376 131.462C165.376 131.462 162.362 139.974 158.961 150.445C156.776 157.322 154.982 164.316 153.587 171.395C153.587 171.395 151.235 170.085 133.693 164.062C116.151 158.04 94.153 150.708 94.153 150.708C94.153 150.708 110.646 131.331 114.158 122.039C117.669 112.747 119.524 114.451 127.644 117.59C135.763 120.728 147.02 126.488 153.56 127.144C160.099 127.799 165.376 130.172 165.376 131.462Z" fill="white"/>
<mask id="mask9_14_62" style="mask-type:luminance" maskUnits="userSpaceOnUse" x="94" y="115" width="72" height="57">
<path d="M165.376 131.462C165.376 131.462 162.362 139.974 158.961 150.445C156.776 157.322 154.982 164.316 153.587 171.395C153.587 171.395 151.235 170.085 133.693 164.062C116.151 158.04 94.153 150.708 94.153 150.708C94.153 150.708 110.646 131.331 114.158 122.039C117.669 112.747 119.524 114.451 127.644 117.59C135.763 120.728 147.02 126.488 153.56 127.144C160.099 127.799 165.376 130.172 165.376 131.462Z" fill="white"/>
</mask>
<g mask="url(#mask9_14_62)">
<path d="M165.376 131.462C165.376 131.462 162.362 139.974 158.961 150.445C156.776 157.322 154.982 164.316 153.587 171.395C153.587 171.395 151.235 170.085 133.693 164.062C116.151 158.04 94.153 150.708 94.153 150.708C94.153 150.708 110.646 131.331 114.158 122.039C117.669 112.747 119.524 114.451 127.644 117.59C135.763 120.728 147.02 126.488 153.56 127.144C160.099 127.799 165.376 130.172 165.376 131.462Z" fill="#ACF75F"/>
<path opacity="0.5" d="M165.376 131.462C165.376 131.462 162.362 139.974 158.961 150.445C156.776 157.322 154.982 164.316 153.587 171.395C153.587 171.395 151.235 170.085 133.693 164.062C116.151 158.04 94.153 150.708 94.153 150.708C94.153 150.708 110.646 131.331 114.158 122.039C117.669 112.747 119.524 114.451 127.644 117.59C135.763 120.728 147.02 126.488 153.56 127.144C160.099 127.799 165.376 130.172 165.376 131.462Z" fill="white"/>
</g>
<path d="M165.376 131.462C165.376 131.462 162.362 139.974 158.961 150.445C156.776 157.322 154.982 164.316 153.587 171.395C153.587 171.395 151.235 170.085 133.693 164.062C116.151 158.04 94.153 150.708 94.153 150.708C94.153 150.708 110.646 131.331 114.158 122.039C117.669 112.747 119.524 114.451 127.644 117.59C135.763 120.728 147.02 126.488 153.56 127.144C160.099 127.799 165.376 130.172 165.376 131.462Z" stroke="#3D3D3D" stroke-width="0.689815" stroke-linecap="round" stroke-linejoin="round"/>
<path d="M152.553 159.268L108.646 144.12" stroke="#3D3D3D" stroke-width="0.689815" stroke-linecap="round" stroke-linejoin="round"/>
<path d="M154.395 154.108L112.095 139.519" stroke="#3D3D3D" stroke-width="0.689815" stroke-linecap="round" stroke-linejoin="round"/>
<path d="M156.202 148.914L115.165 134.725" stroke="#3D3D3D" stroke-width="0.689815" stroke-linecap="round" stroke-linejoin="round"/>
<path d="M157.733 142.588L119.386 129.544" stroke="#3D3D3D" stroke-width="0.689815" stroke-linecap="round" stroke-linejoin="round"/>
<path d="M158.885 136.642L123.215 123.984" stroke="#3D3D3D" stroke-width="0.689815" stroke-linecap="round" stroke-linejoin="round"/>
<path d="M106.342 144.698C107.294 144.698 108.066 144.139 108.066 143.45C108.066 142.76 107.294 142.201 106.342 142.201C105.389 142.201 104.617 142.76 104.617 143.45C104.617 144.139 105.389 144.698 106.342 144.698Z" stroke="#3D3D3D" stroke-width="0.689815" stroke-linecap="round" stroke-linejoin="round"/>
<path d="M109.984 140.097C110.937 140.097 111.709 139.538 111.709 138.849C111.709 138.159 110.937 137.6 109.984 137.6C109.032 137.6 108.26 138.159 108.26 138.849C108.26 139.538 109.032 140.097 109.984 140.097Z" stroke="#3D3D3D" stroke-width="0.689815" stroke-linecap="round" stroke-linejoin="round"/>
<path d="M112.861 135.78C113.813 135.78 114.585 135.221 114.585 134.531C114.585 133.842 113.813 133.283 112.861 133.283C111.908 133.283 111.136 133.842 111.136 134.531C111.136 135.221 111.908 135.78 112.861 135.78Z" stroke="#3D3D3D" stroke-width="0.689815" stroke-linecap="round" stroke-linejoin="round"/>
<path d="M115.93 129.834C116.883 129.834 117.655 129.275 117.655 128.585C117.655 127.895 116.883 127.336 115.93 127.336C114.978 127.336 114.206 127.895 114.206 128.585C114.206 129.275 114.978 129.834 115.93 129.834Z" stroke="#3D3D3D" stroke-width="0.689815" stroke-linecap="round" stroke-linejoin="round"/>
<path d="M121.684 122.839C121.684 122.149 120.911 121.59 119.959 121.59C119.007 121.59 118.234 122.149 118.234 122.839C118.234 123.528 119.007 124.08 119.959 124.08C120.911 124.08 121.684 123.522 121.684 122.839Z" stroke="#3D3D3D" stroke-width="0.689815" stroke-linecap="round" stroke-linejoin="round"/>
<path d="M169.17 128.075C169.17 128.075 165.114 135.145 162.493 136.194C159.872 137.242 152.284 136.063 152.836 134.359C153.387 132.655 157.154 132.131 159.644 128.841C162.134 125.55 164.356 121.253 166.708 121.901C169.06 122.549 170.771 125.302 170.902 126.219" fill="#D9D9D9"/>
<path d="M169.17 128.075C169.17 128.075 165.114 135.145 162.493 136.194C159.872 137.242 152.284 136.063 152.836 134.359C153.387 132.655 157.154 132.131 159.644 128.841C162.134 125.55 164.356 121.253 166.708 121.901C169.06 122.549 170.771 125.302 170.902 126.219" stroke="#3D3D3D" stroke-width="0.689815" stroke-linecap="round" stroke-linejoin="round"/>
<path d="M101.879 80.5528C101.879 80.5528 102.665 93.9008 102.665 94.425C102.665 94.9493 81.0602 117.472 76.0867 122.707C71.1131 127.943 70.982 132.261 72.1547 135.538C73.3274 138.815 77.3973 143.526 81.0602 144.043C84.7232 144.561 88.7862 140.905 92.4491 132.786C96.112 124.667 109.212 100.185 110.646 97.5706C112.081 94.9562 115.475 92.597 115.475 92.597C115.475 92.597 119.007 90.7621 120.58 88.1408C122.153 85.5195 125.16 80.2907 128.43 77.7936C131.7 75.2964 133.259 74.648 131.838 73.8685C130.417 73.089 125.815 74.7791 124.505 75.6965C123.194 76.614 120.318 78.9732 120.318 78.9732C120.318 78.9732 117.827 75.3033 117.696 72.1647C117.565 69.026 118.352 64.5353 116.524 65.4528C114.696 66.3702 111.647 73.1304 107.749 76.745C104.1 80.1596 101.879 78.5869 101.879 80.5528Z" fill="#D9D9D9"/>
<mask id="mask10_14_62" style="mask-type:luminance" maskUnits="userSpaceOnUse" x="71" y="65" width="62" height="80">
<path d="M101.879 80.5531C101.879 80.5531 102.665 93.901 102.665 94.4253C102.665 94.9495 81.0602 117.472 76.0866 122.708C71.1131 127.943 70.982 132.262 72.1547 135.538C73.3274 138.815 77.3973 143.526 81.0602 144.044C84.7231 144.561 88.7862 140.905 92.4491 132.786C96.112 124.667 109.212 100.185 110.646 97.5708C112.081 94.9564 115.475 92.5973 115.475 92.5973C115.475 92.5973 119.007 90.7623 120.58 88.141C122.153 85.5197 125.16 80.2909 128.43 77.7938C131.7 75.2967 133.259 74.6482 131.838 73.8688C130.417 73.0893 125.815 74.7793 124.505 75.6968C123.194 76.6142 120.318 78.9734 120.318 78.9734C120.318 78.9734 117.827 75.3036 117.696 72.1649C117.565 69.0263 118.352 64.5356 116.524 65.453C114.696 66.3705 111.647 73.1307 107.749 76.7453C104.1 80.1599 101.879 78.5871 101.879 80.5531Z" fill="white"/>
</mask>
<g mask="url(#mask10_14_62)">
<path opacity="0.15" d="M131.858 73.8761C130.416 73.0897 125.836 74.7866 124.525 75.7041C123.215 76.6215 120.338 78.9807 120.338 78.9807C120.338 78.9807 117.848 75.3109 117.717 72.1722C117.586 69.0336 118.372 64.5429 116.544 65.4603C114.716 66.3778 111.667 73.138 107.77 76.7526C106.761 77.7391 105.548 78.4926 104.217 78.96L103.562 81.7193C103.562 81.7193 106.252 83.4369 106.252 85.6374C106.252 87.838 109.701 88.5691 109.915 90.7697C110.129 92.9702 108.453 95.4121 107.225 96.8814C105.997 98.3507 86.1993 132.572 81.0671 136.732C78.9217 138.464 76.1004 138.622 73.5412 138.222C75.3485 140.947 78.3147 143.692 81.0602 144.079C84.7231 144.603 88.7861 140.94 92.449 132.821C96.1119 124.702 109.212 100.22 110.646 97.6057C112.081 94.9913 115.475 92.6322 115.475 92.6322C115.475 92.6322 119.007 90.7973 120.58 88.176C122.152 85.5547 125.16 80.3259 128.43 77.8287C131.7 75.3316 133.3 74.6556 131.858 73.8761Z" fill="black"/>
</g>
<path d="M101.879 80.5528C101.879 80.5528 102.665 93.9008 102.665 94.425C102.665 94.9493 81.0602 117.472 76.0867 122.707C71.1131 127.943 70.982 132.261 72.1547 135.538C73.3274 138.815 77.3973 143.526 81.0602 144.043C84.7232 144.561 88.7862 140.905 92.4491 132.786C96.112 124.667 109.212 100.185 110.646 97.5706C112.081 94.9562 115.475 92.597 115.475 92.597C115.475 92.597 119.007 90.7621 120.58 88.1408C122.153 85.5195 125.16 80.2907 128.43 77.7936C131.7 75.2964 133.259 74.648 131.838 73.8685C130.417 73.089 125.815 74.7791 124.505 75.6965C123.194 76.614 120.318 78.9732 120.318 78.9732C120.318 78.9732 117.827 75.3033 117.696 72.1647C117.565 69.026 118.352 64.5353 116.524 65.4528C114.696 66.3702 111.647 73.1304 107.749 76.745C104.1 80.1596 101.879 78.5869 101.879 80.5528Z" stroke="#3D3D3D" stroke-width="0.689815" stroke-linecap="round" stroke-linejoin="round"/>
<path d="M142.199 66.1498L142.261 66.2533C142.359 66.4273 142.423 66.6193 142.447 66.8179C142.471 67.0166 142.455 67.2181 142.4 67.4106C142.346 67.6031 142.253 67.7829 142.129 67.9395C142.004 68.0961 141.85 68.2263 141.674 68.3227L116.786 82.119L111.971 83.1745L115.261 79.3874L140.15 65.5911C140.496 65.3959 140.905 65.3451 141.289 65.4497C141.672 65.5543 141.999 65.8059 142.199 66.1498Z" fill="#ACF75F" stroke="#3D3D3D" stroke-width="0.689815" stroke-linecap="round" stroke-linejoin="round"/>
<path d="M116.786 82.1184L116.965 82.0149L115.434 79.2764L115.254 79.3729L111.971 83.16L116.786 82.1184Z" fill="white" stroke="#3D3D3D" stroke-width="0.689815" stroke-linecap="round" stroke-linejoin="round"/>
<path d="M139.108 69.7434L141.674 68.3086C141.85 68.2122 142.004 68.0819 142.129 67.9253C142.253 67.7688 142.346 67.589 142.4 67.3964C142.455 67.2039 142.471 67.0025 142.447 66.8038C142.423 66.6051 142.36 66.4132 142.261 66.2391L142.199 66.1356C142.102 65.9603 141.972 65.8058 141.815 65.6812C141.659 65.5566 141.479 65.4643 141.287 65.4097C141.094 65.3552 140.893 65.3394 140.694 65.3634C140.495 65.3874 140.303 65.4505 140.129 65.5493L137.563 66.9841L139.108 69.7434Z" fill="white" stroke="#3D3D3D" stroke-width="0.689815" stroke-linecap="round" stroke-linejoin="round"/>
<path d="M137.919 66.814L136.545 67.5806L138.078 70.3272L139.452 69.5606L137.919 66.814Z" fill="white" stroke="#3D3D3D" stroke-width="0.689815" stroke-linecap="round" stroke-linejoin="round"/>
<path d="M111.971 83.1606L114.24 82.664L113.516 81.374L111.971 83.1606Z" fill="white" stroke="#3D3D3D" stroke-width="0.689815" stroke-linecap="round" stroke-linejoin="round"/>
<path d="M107.77 83.6912C107.77 83.6912 107.377 86.8367 104.886 86.9609" stroke="#3D3D3D" stroke-width="0.689815" stroke-linecap="round" stroke-linejoin="round"/>
<path d="M114.834 67.9987C114.834 67.9987 119.414 75.3314 120.987 76.7731C122.56 78.2148 124.519 77.9527 124.912 76.6421C125.305 75.3314 122.691 72.586 121.642 69.0541C120.594 65.5222 120.2 64.4737 118.103 64.998C116.006 65.5222 114.965 66.7087 114.834 67.9987Z" fill="#D9D9D9" stroke="#3D3D3D" stroke-width="0.689815" stroke-linecap="round" stroke-linejoin="round"/>
<path d="M122.166 77.4078C122.166 77.4078 113.923 73.2206 112.088 71.1235C110.253 69.0265 108.163 71.7789 107.77 73.193C107.377 74.6071 113.792 77.2491 116.8 78.2976C119.807 79.3461 121.628 79.7393 122.56 78.6908C123.491 77.6423 122.166 77.4078 122.166 77.4078Z" fill="#D9D9D9" stroke="#3D3D3D" stroke-width="0.689815" stroke-linecap="round" stroke-linejoin="round"/>
<path d="M108.294 74.3923C108.294 74.3923 105.535 75.3098 105.017 76.4618C104.5 77.6138 105.935 78.4277 108.556 80.0005C111.178 81.5733 115.365 82.07 116.406 81.5664C117.448 81.0628 117.586 80.0005 116.144 79.497C114.702 78.9934 109.474 75.1787 108.294 74.3923Z" fill="#D9D9D9" stroke="#3D3D3D" stroke-width="0.689815" stroke-linecap="round" stroke-linejoin="round"/>
<path d="M105.935 78.4558C105.935 78.4558 102.927 77.6695 102.01 79.3733C101.092 81.0771 102.141 82.1326 105.28 83.0362C108.418 83.9399 113.137 84.609 113.268 82.9052C113.399 81.2013 110.777 80.9392 108.556 80.0286C106.335 79.1181 105.935 78.4558 105.935 78.4558Z" fill="#D9D9D9" stroke="#3D3D3D" stroke-width="0.689815" stroke-linecap="round" stroke-linejoin="round"/>
<path d="M32.2765 189.806C32.2765 189.806 30.7727 184.908 26.3717 183.149C23.3158 181.921 19.8046 182.246 16.6384 182.797C10.7405 183.818 5.60132 186.164 2.28882e-05 188.171C2.28882e-05 188.171 2.38678 187.288 12.1822 192.062C15.7899 193.821 19.915 195.187 24.0401 195.09C27.3581 195.021 32.4351 194.076 32.2765 189.806Z" fill="#ACF75F"/>
<path d="M32.8076 175.417C32.8076 175.417 32.8076 170.291 29.0826 167.339C26.5096 165.269 23.0468 164.58 19.8598 164.186C13.9136 163.496 8.3123 164.221 2.37989 164.524C2.37989 164.524 4.91841 164.373 12.9203 171.774C15.8658 174.499 19.4183 176.996 23.3986 178.1C26.5924 178.983 31.7246 179.548 32.8076 175.417Z" fill="#ACF75F"/>
<path d="M42.9342 194.442C42.9342 194.442 38.9401 191.234 38.9263 186.502C38.9263 183.212 40.506 180.059 42.1892 177.321C45.314 172.216 49.3908 168.298 53.3159 163.842C53.3159 163.842 51.6189 165.732 52.4467 176.596C52.7502 180.597 52.495 184.936 50.8877 188.737C49.5978 191.793 46.8454 196.167 42.9342 194.442Z" fill="#ACF75F"/>
<path d="M57.0891 202.313C57.0891 202.313 56.5234 197.215 59.8483 193.856C62.1661 191.524 65.5186 190.407 68.6435 189.662C74.4655 188.282 80.1151 188.365 86.0475 187.979C86.0475 187.979 83.509 188.123 76.3901 196.394C73.7757 199.443 70.5336 202.334 66.7327 203.893C63.6837 205.141 58.6411 206.293 57.0891 202.313Z" fill="#ACF75F"/>
<path d="M56.1579 184.156C56.1579 184.156 51.0809 183.467 48.6389 179.404C46.942 176.582 46.6936 173.064 46.7281 169.85C46.7902 163.862 48.2733 158.406 49.3494 152.604C49.3494 152.604 48.8666 155.094 55.1577 163.993C57.4686 167.277 59.4828 171.126 60.0554 175.21C60.5175 178.459 60.4003 183.625 56.1579 184.156Z" fill="#ACF75F"/>
<path d="M70.7681 175.037C70.7681 175.037 74.4242 178.638 79.1287 178.093C82.3915 177.72 85.337 175.768 87.8618 173.781C92.5663 170.084 95.9809 165.573 99.9542 161.158C99.9542 161.158 98.2711 163.062 87.3858 163.51C83.3711 163.676 79.108 164.434 75.5072 166.476C72.6513 168.111 68.6021 171.353 70.7681 175.037Z" fill="#ACF75F"/>
<path d="M66.5396 171.471C66.5396 171.471 71.6442 171.981 74.9691 168.615C77.28 166.276 78.3492 162.91 79.0735 159.778C80.4186 153.942 80.2531 148.293 80.5773 142.36C80.5773 142.36 80.46 144.899 72.2581 152.073C69.2367 154.722 66.3809 157.992 64.8633 161.827C63.6837 164.924 62.5455 169.974 66.5396 171.471Z" fill="#ACF75F"/>
<path d="M48.3422 221.11L39.5402 199.449L29.3861 174.402" stroke="#3D3D3D" stroke-width="0.689815" stroke-linecap="round" stroke-linejoin="round"/>
<path d="M50.3704 217.385L59.1724 187.261L68.6436 168.649" stroke="#3D3D3D" stroke-width="0.689815" stroke-linecap="round" stroke-linejoin="round"/>
<path d="M53.7573 205.541L62.5525 200.464" stroke="#3D3D3D" stroke-width="0.689815" stroke-linecap="round" stroke-linejoin="round"/>
<path d="M59.1725 187.261L54.7714 177.445" stroke="#3D3D3D" stroke-width="0.689815" stroke-linecap="round" stroke-linejoin="round"/>
<path d="M64.677 177.493L75.4175 172.706" stroke="#3D3D3D" stroke-width="0.689815" stroke-linecap="round" stroke-linejoin="round"/>
<path d="M41.2302 203.505L44.9552 188.612" stroke="#3D3D3D" stroke-width="0.689815" stroke-linecap="round" stroke-linejoin="round"/>
<path d="M36.2982 192.186L27.6962 187.598" stroke="#3D3D3D" stroke-width="0.689815" stroke-linecap="round" stroke-linejoin="round"/>
<path d="M57.1237 231.94H41.251L37.8502 213.998H60.5245L57.1237 231.94Z" fill="#3D3D3D" stroke="#3D3D3D" stroke-width="0.689815" stroke-linecap="round" stroke-linejoin="round"/>
</svg>
