<svg width="816" height="285" viewBox="0 0 816 285" fill="none" xmlns="http://www.w3.org/2000/svg">
<rect width="815.053" height="284.413" fill="white"/>
<path d="M124.269 90.3203H169.828C189.842 90.3203 198.401 102.698 198.401 116.918C198.401 130.349 190.632 144.833 169.828 144.833H142.176C140.728 144.833 139.938 145.491 139.938 147.071V179.199H124.401V144.043C124.401 134.036 128.614 129.954 138.358 129.954H170.354C179.176 129.954 182.732 123.897 182.732 117.708C182.732 111.256 178.913 105.858 170.486 105.858H124.269V90.3203ZM222.652 109.676H251.225V123.107H226.734C220.545 123.107 217.78 126.004 217.78 132.061V179.199H203.823V129.954C203.823 115.996 208.958 109.676 222.652 109.676ZM285.182 109.676H299.798C318.232 109.676 329.951 121 329.951 144.438C329.951 167.875 318.232 179.199 299.798 179.199H285.182C266.616 179.199 255.029 167.875 255.029 144.438C255.029 121 266.616 109.676 285.182 109.676ZM298.481 123.107H286.499C274.385 123.107 269.118 129.427 269.118 144.438C269.118 159.448 274.385 165.637 286.499 165.637H298.481C310.463 165.637 315.862 159.448 315.862 144.438C315.862 129.427 310.463 123.107 298.481 123.107ZM397.617 79.5232H411.706V149.441C411.706 169.456 402.752 179.199 386.162 179.199H366.937C348.372 179.199 336.784 167.875 336.784 144.438C336.784 121 348.372 109.676 366.937 109.676H397.617V79.5232ZM382.08 165.637C393.272 165.637 397.617 160.634 397.617 148.783V123.107H368.254C356.272 123.107 350.873 129.427 350.873 144.438C350.873 159.448 356.272 165.637 368.254 165.637H382.08ZM424.651 109.676H438.74V151.285C438.74 159.448 444.797 165.637 455.858 165.637H467.181C478.242 165.637 484.167 159.448 484.167 151.285V109.676H497.861V151.811C497.861 167.875 487.591 179.199 467.708 179.199H454.804C434.922 179.199 424.651 167.875 424.651 151.811V109.676ZM537.778 109.676H573.592V123.107H539.094C526.98 123.107 521.713 129.427 521.713 144.438C521.713 159.448 526.98 165.637 539.094 165.637H573.592V179.199H537.778C519.212 179.199 507.625 167.875 507.625 144.438C507.625 121 519.212 109.676 537.778 109.676ZM576.563 109.676H586.044V93.2171H600.133V109.676H619.357V123.107H600.133V156.025C600.133 163.794 602.898 166.427 609.481 166.427H619.094V179.199H606.585C592.232 179.199 586.044 173.406 586.044 155.235V123.107H576.563V109.676ZM684.14 109.676H699.019L657.147 207.114H642.136L655.172 176.698C647.272 176.698 644.506 174.196 642.136 168.139L618.83 109.676H633.578L654.514 161.424C655.435 163.925 656.094 164.32 658.727 164.32H660.57L684.14 109.676Z" fill="#3D3D3D"/>
<rect x="252.021" y="110.342" width="83.4804" height="69.5231" fill="white"/>
<path fill-rule="evenodd" clip-rule="evenodd" d="M325.373 123.205C316.05 129.112 305.308 137.914 294.047 154.953C292.618 157.573 287.897 157.888 287.165 156.101C287.133 156.075 287.101 156.037 287.07 155.987C282.598 148.818 278.867 144.924 276.284 142.228L276.284 142.228C274.164 140.015 272.816 138.609 272.467 136.861C272.467 133.114 276.252 131.13 277.377 131.692C282.472 134.24 287.483 140.754 290.119 145.05C296.263 133.652 310.368 122.451 320.075 115.985C322.301 117.99 324.114 120.444 325.373 123.205ZM325.373 123.205C326.638 125.979 327.343 129.062 327.343 132.31V157.897C327.343 170.029 317.507 179.865 305.375 179.865H280.047C267.914 179.865 258.078 170.029 258.078 157.897V132.31C258.078 120.177 267.914 110.342 280.047 110.342H305.375C311.028 110.342 316.182 112.477 320.075 115.985C325.237 112.547 329.155 110.448 329.971 110.37C335.399 109.853 336.95 116.538 333.848 118.253C331.188 119.724 328.353 121.316 325.373 123.205Z" fill="#ACF75F"/>
<rect x="261.137" y="111.106" width="66.0199" height="66.7846" rx="22.0491" fill="#3D3D3D"/>
<path fill-rule="evenodd" clip-rule="evenodd" d="M325.436 123.217C316.105 129.129 305.353 137.94 294.081 154.995C292.65 157.617 287.925 157.933 287.192 156.144C287.16 156.118 287.129 156.08 287.097 156.03C282.621 148.855 278.887 144.957 276.301 142.258C274.179 140.043 272.83 138.636 272.48 136.886C272.48 133.135 276.269 131.149 277.395 131.712C282.495 134.263 287.511 140.783 290.149 145.083C296.298 133.674 310.417 122.462 320.133 115.99C322.361 117.997 324.176 120.454 325.436 123.217ZM325.436 123.217C326.703 125.993 327.408 129.08 327.408 132.331V157.941C327.408 170.085 317.563 179.93 305.419 179.93H280.067C267.923 179.93 258.078 170.085 258.078 157.941V132.331C258.078 120.186 267.923 110.342 280.067 110.342H305.419C311.078 110.342 316.237 112.479 320.133 115.99C325.3 112.549 329.222 110.448 330.039 110.37C335.472 109.853 337.024 116.544 333.919 118.26C331.256 119.733 328.419 121.327 325.436 123.217Z" fill="#ACF75F"/>
</svg>
